<?xml version="1.0" encoding="utf-8"?>
<!-- Generator: Adobe Illustrator 19.0.0, SVG Export Plug-In . SVG Version: 6.00 Build 0)  -->
<svg version="1.1" id="Layer_1" xmlns="http://www.w3.org/2000/svg" xmlns:xlink="http://www.w3.org/1999/xlink" x="0px" y="0px"
	 viewBox="0 0 668.6 159.6" style="enable-background:new 0 0 668.6 159.6;" xml:space="preserve">
<style type="text/css">
	.st0{fill:#1A171B;}
	.st1{fill:#FF9900;}
</style>
<g id="Layer_1_4_">
	<g id="XMLID_166_">
		<path id="XMLID_205_" class="st0" d="M226.2,140.5v-16.2c0-0.9,0-1.7-0.1-2.4c-0.1-0.7-0.4-1.3-0.7-1.7c-0.3-0.5-0.8-0.8-1.3-1.1
			c-0.5-0.3-1.3-0.4-2.2-0.4c-0.5,0-1.2,0-1.7,0.1c-0.7,0.1-1.3,0.3-2,0.4c-0.7,0.1-1.3,0.4-1.8,0.7c-0.5,0.3-1.1,0.5-1.6,0.9
			c0.1,0.5,0.3,1.2,0.3,1.7c0,0.7,0,1.2,0,1.6v16.2h-4.1v-17c0-1.6-0.4-2.8-1.1-3.6s-1.7-1.1-2.9-1.1s-2.5,0.3-3.8,0.7
			c-1.3,0.4-2.5,1.1-3.6,1.7v19.3h-4.1v-24.6h3.9v2.2l0.1,0.1c1.3-0.9,2.8-1.6,4.2-2.1c1.4-0.5,2.8-0.8,4.1-0.8s2.5,0.3,3.4,0.7
			c1.1,0.5,1.8,1.2,2.5,2.2c0.7-0.4,1.3-0.8,2-1.2c0.7-0.4,1.4-0.7,2.2-0.9c0.8-0.3,1.6-0.5,2.4-0.7c0.8-0.1,1.6-0.3,2.2-0.3
			c1.7,0,3.2,0.3,4.1,0.8c1.1,0.5,1.7,1.2,2.2,2s0.8,1.7,0.9,2.6c0.1,0.9,0.3,2,0.3,2.8v16.8h-3.9L226.2,140.5L226.2,140.5z"/>
		<path id="XMLID_202_" class="st0" d="M248.1,115.4c1.7,0,3,0.3,4.2,0.7c1.2,0.4,2.1,1.1,2.8,1.7c0.8,0.7,1.3,1.4,1.7,2.4
			c0.4,0.9,0.7,1.7,0.9,2.6c0.1,0.9,0.3,1.7,0.3,2.5s0,1.4,0,2v2h-16.4c0,1.2,0.1,2.2,0.3,3.3c0.3,1.1,0.5,2,1.1,2.8
			c0.5,0.8,1.3,1.4,2.1,1.8c0.9,0.5,2.1,0.7,3.4,0.7c1.4,0,2.8-0.1,3.9-0.4c1.2-0.3,2.5-0.8,3.9-1.3l1.1,2.6c-1.4,0.8-3,1.3-4.5,1.7
			c-1.4,0.4-3,0.5-4.7,0.5c-2.2,0-3.9-0.4-5.4-1.1s-2.5-1.6-3.3-2.6c-0.8-1.2-1.4-2.5-1.7-3.9c-0.3-1.6-0.5-3.2-0.5-4.9
			c0-0.8,0-1.6,0.1-2.5c0.1-0.9,0.3-1.8,0.5-2.8s0.7-1.8,1.2-2.8c0.5-0.9,1.2-1.7,2-2.5c0.8-0.7,1.7-1.3,2.9-1.7
			C245.2,115.5,246.7,115.4,248.1,115.4z M248.3,118.3c-1.2,0-2.1,0.3-3,0.7c-0.8,0.4-1.4,1.1-2,1.7c-0.5,0.8-0.9,1.6-1.2,2.6
			c-0.3,0.9-0.4,2-0.5,3h12.5c0-1.2-0.1-2.2-0.3-3.3c-0.3-1.1-0.5-1.8-0.9-2.5c-0.4-0.7-1.1-1.3-1.8-1.6
			C250.4,118.5,249.5,118.3,248.3,118.3z"/>
		<path id="XMLID_199_" class="st0" d="M281.4,138.1L281.4,138.1c-1.1,0.8-2.2,1.4-3.7,1.8c-1.3,0.5-2.6,0.8-3.9,0.8
			c-1.8,0-3.3-0.3-4.5-0.9c-1.2-0.7-2.1-1.6-2.8-2.6c-0.7-1.1-1.2-2.4-1.4-3.8c-0.3-1.4-0.4-3-0.4-4.6c0-1.8,0.1-3.7,0.5-5.3
			c0.4-1.6,0.9-3,1.7-4.2c0.8-1.2,1.8-2.1,3.2-2.8c1.3-0.7,2.8-1.1,4.6-1.1c0.5,0,1.1,0,1.6,0.1s1.2,0.1,1.8,0.3
			c0.7,0.1,1.2,0.4,1.8,0.5c0.5,0.3,1.2,0.5,1.6,0.8v-12.5h4.1v35.8h-3.9v-2.4L281.4,138.1L281.4,138.1z M281.4,120.4
			c-0.3-0.3-0.7-0.4-1.1-0.7c-0.5-0.3-1.1-0.4-1.6-0.5s-1.2-0.3-1.8-0.4c-0.7-0.1-1.2-0.1-1.7-0.1c-0.9,0-1.7,0.1-2.5,0.5
			c-0.8,0.3-1.4,0.9-2,1.6c-0.5,0.8-1.1,1.8-1.4,3.2c-0.4,1.3-0.5,2.9-0.5,4.9c0,1.7,0.1,3.2,0.4,4.3c0.3,1.2,0.7,2.1,1.2,2.8
			s1.2,1.2,2,1.4c0.8,0.3,1.6,0.4,2.5,0.4c0.5,0,1.1-0.1,1.7-0.3s1.2-0.4,1.8-0.7s1.2-0.5,1.7-0.8c0.5-0.3,0.9-0.5,1.2-0.9v-14.7
			L281.4,120.4L281.4,120.4z"/>
		<path id="XMLID_196_" class="st0" d="M299.3,109.5c0,0.7-0.3,1.3-0.8,1.8c-0.5,0.5-1.2,0.8-2,0.8c-0.7,0-1.3-0.3-1.8-0.8
			c-0.5-0.5-0.8-1.2-0.8-1.8c0-0.8,0.3-1.4,0.8-2c0.5-0.5,1.2-0.8,1.8-0.8c0.8,0,1.4,0.3,2,0.8C299,108,299.3,108.7,299.3,109.5z
			 M294.6,140.5v-24.6h4.1v24.6H294.6z"/>
		<path id="XMLID_193_" class="st0" d="M326.5,137.3h3.3l0.3,2.4c-0.7,0.3-1.3,0.5-2.1,0.8c-0.8,0.1-1.6,0.3-2.2,0.3
			c-0.9,0-1.7-0.3-2.2-0.7c-0.5-0.4-0.8-1.2-0.9-2.5l0,0c-0.9,0.8-1.8,1.4-2.8,1.8c-0.9,0.4-1.7,0.8-2.4,0.9c-0.7,0.3-1.3,0.3-2,0.4
			c-0.5,0-1.1,0-1.4,0c-1.4,0-2.6-0.3-3.6-0.7c-0.9-0.5-1.7-1.1-2.2-1.7s-0.9-1.4-1.2-2.2c-0.3-0.8-0.3-1.6-0.3-2.2
			c0-2.1,0.8-3.8,2.2-5.1c1.6-1.3,3.8-2,7-2.2l6.3-0.4v-1.6c0-2.1-0.4-3.6-1.1-4.3c-0.8-0.8-2.1-1.3-4.2-1.3c-1.2,0-2.5,0.1-3.8,0.4
			c-1.3,0.3-2.6,0.5-3.8,1.1l-0.9-2.8c1.4-0.7,2.9-1.2,4.6-1.4c1.7-0.4,3.3-0.5,4.9-0.5c2.6,0,4.6,0.7,6,1.8s2.2,3.3,2.2,6.3v13.5
			L326.5,137.3L326.5,137.3z M316.3,129c-1.7,0.1-2.9,0.5-3.7,1.3s-1.2,1.8-1.2,3c0,1.4,0.4,2.5,1.1,3.3c0.7,0.7,1.8,1.1,3.4,1.1
			c1.1,0,2.2-0.3,3.3-0.8c1.2-0.5,2.2-1.3,3.4-2.4v-5.8L316.3,129z"/>
		<path id="XMLID_190_" class="st0" d="M340.3,117.5c1.4-0.8,2.8-1.3,4.1-1.7c1.2-0.3,2.4-0.5,3.4-0.5c1.8,0,3.3,0.3,4.5,0.9
			s2.1,1.6,2.9,2.8c0.7,1.2,1.2,2.5,1.6,4.1c0.3,1.6,0.4,3.3,0.4,5.1c0,1.7-0.1,3.3-0.5,4.9c-0.4,1.6-0.9,2.9-1.7,3.9
			c-0.8,1.2-2,2-3.3,2.6c-1.3,0.7-3,1.1-5,1.1c-1.7,0-3.4-0.1-5.1-0.5c-1.8-0.4-3.4-0.9-5.1-1.7v-33.9h4.1v7.2l-0.1,5.4V117.5z
			 M346.9,118.7c-1.2,0-2.4,0.3-3.6,0.7c-1.2,0.4-2.2,0.9-3.2,1.4v15.6c1.1,0.5,2.1,0.8,3,0.9c1.1,0.1,2,0.3,2.9,0.3
			c1.1,0,2-0.1,2.8-0.4c0.8-0.3,1.6-0.8,2.1-1.6c0.5-0.7,1.1-1.7,1.3-2.9c0.3-1.2,0.4-2.6,0.4-4.3c0-2-0.1-3.6-0.4-4.7
			c-0.3-1.3-0.7-2.2-1.2-3c-0.5-0.7-1.2-1.2-1.8-1.4C348.6,118.8,347.8,118.7,346.9,118.7z"/>
		<path id="XMLID_189_" class="st0" d="M371.2,141c-1.7,0-3-0.3-3.9-0.7c-0.9-0.5-1.7-1.1-2.1-1.8c-0.5-0.8-0.8-1.6-0.9-2.5
			c-0.1-0.9-0.1-1.8-0.1-2.8V116h4.1v16.3c0,0.9,0,1.7,0.1,2.4s0.3,1.2,0.5,1.7c0.3,0.5,0.7,0.8,1.3,1.1c0.5,0.3,1.3,0.4,2.2,0.4
			c0.9,0,2.1-0.3,3.4-0.8c1.3-0.5,2.6-1.3,3.8-2.4V116c0.7,0,1.3,0,2.1,0c0.7,0,1.3,0,2.1,0v24.6h-4.1v-2.8l-0.1-0.1
			c-0.8,0.7-1.6,1.3-2.4,1.7s-1.6,0.8-2.2,1.1c-0.7,0.3-1.4,0.4-2,0.5C372.1,140.9,371.6,141,371.2,141z"/>
		<path id="XMLID_188_" class="st0" d="M401.5,132.6c0.4-1.1,0.7-2.4,1.2-3.7c0.4-1.3,0.9-2.8,1.3-4.2c0.4-1.4,0.9-2.9,1.4-4.5
			c0.5-1.4,0.9-2.9,1.4-4.3h4.2c-0.8,2.4-1.6,4.7-2.4,7.2s-1.6,4.9-2.5,7.4c-0.8,2.5-1.7,4.9-2.5,7.4c-0.8,2.5-1.6,4.9-2.4,7.1
			c-0.7,2-1.4,3.6-2.6,4.6c-1.1,1.2-2.6,1.7-4.5,1.7c-0.4,0-0.9-0.1-1.8-0.1c-0.8,0-2-0.3-3.6-0.8l0.7-2.9c0.9,0.3,1.7,0.4,2.2,0.4
			c0.5,0.1,1.2,0.1,1.7,0.1c0.9,0,1.8-0.3,2.4-0.7c0.7-0.5,1.2-1.3,1.6-2.8l1.4-4.3H397l-7.8-24.5h3.9l5.1,17c0.4,1.1,0.7,2.1,0.8,3
			c0.3,0.9,0.4,1.7,0.5,2.1h0.3L401.5,132.6z"/>
		<path id="XMLID_185_" class="st0" d="M422.4,109.5c0,0.7-0.3,1.3-0.8,1.8c-0.5,0.5-1.2,0.8-2,0.8c-0.7,0-1.3-0.3-1.8-0.8
			c-0.5-0.5-0.8-1.2-0.8-1.8c0-0.8,0.3-1.4,0.8-2c0.5-0.5,1.2-0.8,1.8-0.8c0.8,0,1.4,0.3,2,0.8C422.1,108,422.4,108.7,422.4,109.5z
			 M417.5,140.5v-24.6h4.1v24.6H417.5z"/>
		<path id="XMLID_184_" class="st0" d="M446.7,140.5v-16.2c0-0.8,0-1.6-0.1-2.2c-0.1-0.7-0.3-1.3-0.5-1.7c-0.3-0.5-0.7-0.9-1.3-1.1
			c-0.5-0.3-1.3-0.4-2.4-0.4c-1.2,0-2.5,0.3-3.8,0.8c-1.4,0.5-2.6,1.1-3.7,1.7v19.3h-4.1v-24.6h3.9v2.1l0.1,0.1
			c1.3-0.9,2.9-1.6,4.5-2.1c1.6-0.5,3-0.8,4.1-0.8c1.7,0,3,0.3,3.9,0.8c0.9,0.5,1.7,1.1,2.2,1.8c0.5,0.8,0.8,1.6,0.9,2.5
			c0.1,0.9,0.1,1.8,0.1,2.8v17.2h-3.9L446.7,140.5L446.7,140.5z"/>
		<path id="XMLID_180_" class="st0" d="M461.8,130.4c-0.8-0.5-1.6-1.2-2.2-2.2c-0.7-1.1-0.9-2.4-0.9-4.1c0-1.6,0.3-2.9,0.9-4.1
			c0.5-1.2,1.3-2.1,2.2-2.8c0.9-0.7,2-1.2,3.2-1.6c1.2-0.4,2.4-0.5,3.6-0.5c0.8,0,1.7,0,2.5,0.1c0.8,0.1,1.6,0.3,2.2,0.5h8v2.6h-4.1
			l-0.1,0.3c0.5,0.7,1.1,1.3,1.3,2.2s0.4,1.8,0.4,2.9c0,1.3-0.3,2.5-0.8,3.6c-0.5,1.1-1.2,2-2.1,2.6s-2,1.3-3.3,1.6
			c-1.3,0.4-2.6,0.5-4.2,0.5h-2.8c-1.2,0-2.2,0.1-2.9,0.4c-0.7,0.3-1.1,0.8-1.1,1.6c0,0.5,0.3,0.9,0.7,1.3c0.5,0.3,1.1,0.4,1.8,0.4
			h6.4c3,0,5.3,0.7,7,1.8c1.6,1.3,2.4,3.2,2.4,5.5c0,1.2-0.3,2.2-0.8,3.3c-0.5,1.1-1.3,1.8-2.4,2.5c-1.1,0.7-2.4,1.2-3.8,1.6
			c-1.4,0.4-3.2,0.5-5,0.5c-2.1,0-3.8-0.3-5.3-0.7c-1.3-0.4-2.4-0.9-3.2-1.6s-1.3-1.4-1.6-2.2c-0.3-0.9-0.4-1.7-0.4-2.6
			c0-1.4,0.4-2.6,1.1-3.7c0.7-1.1,1.4-1.7,2.2-2.1c-0.9-0.3-1.7-0.7-2.2-1.2c-0.5-0.7-0.8-1.4-0.8-2.4c0-0.8,0.1-1.3,0.3-1.8
			c0.3-0.5,0.5-0.9,0.9-1.2c0.4-0.4,0.8-0.5,1.3-0.8c0.4-0.1,0.9-0.3,1.3-0.4L461.8,130.4z M464.7,138.9c-0.4,0.1-0.7,0.3-1.1,0.7
			c-0.4,0.3-0.7,0.7-0.9,1.1c-0.3,0.4-0.5,0.9-0.7,1.3c-0.1,0.5-0.3,0.9-0.3,1.4c0,0.7,0.1,1.3,0.3,1.8c0.1,0.5,0.5,1.1,1.1,1.6
			c0.5,0.4,1.3,0.8,2.1,1.1c0.9,0.3,2.1,0.4,3.6,0.4c2.4,0,4.2-0.4,5.4-1.3c1.3-0.9,1.8-2.1,1.8-3.6c0-0.5-0.1-1.1-0.3-1.6
			c-0.1-0.5-0.4-1.1-0.8-1.4c-0.4-0.4-1.1-0.8-1.8-1.1c-0.8-0.3-1.8-0.4-3-0.4L464.7,138.9L464.7,138.9z M474.7,123.9
			c0-0.7-0.1-1.3-0.3-2s-0.5-1.3-0.9-1.8c-0.5-0.5-1.1-0.9-1.8-1.3c-0.8-0.4-1.7-0.5-2.9-0.5c-2,0-3.4,0.5-4.5,1.4s-1.4,2.4-1.4,4.1
			c0,1.7,0.5,3,1.4,3.9c0.9,1.1,2.2,1.4,3.9,1.4c0.9,0,1.8-0.1,2.6-0.3c0.8-0.3,1.4-0.5,2.1-1.1c0.5-0.4,1.1-1.1,1.3-1.7
			C474.4,125.6,474.7,124.8,474.7,123.9z"/>
		<path id="XMLID_177_" class="st0" d="M522,137.3h3.3l0.3,2.4c-0.7,0.3-1.3,0.5-2.1,0.8c-0.8,0.1-1.6,0.3-2.2,0.3
			c-0.9,0-1.7-0.3-2.2-0.7c-0.5-0.4-0.8-1.2-0.9-2.5l0,0c-0.9,0.8-1.8,1.4-2.8,1.8c-0.9,0.4-1.7,0.8-2.4,0.9c-0.7,0.3-1.3,0.3-2,0.4
			c-0.5,0-1.1,0-1.4,0c-1.4,0-2.6-0.3-3.6-0.7c-0.9-0.5-1.7-1.1-2.2-1.7c-0.5-0.7-0.9-1.4-1.2-2.2c-0.3-0.8-0.3-1.6-0.3-2.2
			c0-2.1,0.8-3.8,2.2-5.1c1.6-1.3,3.8-2,7-2.2l6.3-0.4v-1.6c0-2.1-0.4-3.6-1.1-4.3c-0.8-0.8-2.1-1.3-4.2-1.3c-1.2,0-2.5,0.1-3.8,0.4
			c-1.3,0.3-2.6,0.5-3.8,1.1l-0.9-2.8c1.4-0.7,2.9-1.2,4.6-1.4c1.7-0.4,3.3-0.5,4.9-0.5c2.6,0,4.6,0.7,6,1.8
			c1.4,1.2,2.2,3.3,2.2,6.3v13.5L522,137.3L522,137.3z M511.8,129c-1.7,0.1-2.9,0.5-3.7,1.3c-0.8,0.8-1.2,1.8-1.2,3
			c0,1.4,0.4,2.5,1.1,3.3c0.7,0.7,1.8,1.1,3.4,1.1c1.1,0,2.2-0.3,3.3-0.8c1.2-0.5,2.2-1.3,3.4-2.4v-5.8L511.8,129z"/>
		<path id="XMLID_173_" class="st0" d="M535.1,130.4c-0.8-0.5-1.6-1.2-2.2-2.2c-0.7-1.1-0.9-2.4-0.9-4.1c0-1.6,0.3-2.9,0.9-4.1
			s1.3-2.1,2.2-2.8c0.9-0.7,2-1.2,3.2-1.6c1.2-0.4,2.4-0.5,3.6-0.5c0.8,0,1.7,0,2.5,0.1c0.8,0.1,1.6,0.3,2.2,0.5h8v2.6h-3.8
			l-0.1,0.3c0.5,0.7,1.1,1.3,1.3,2.2s0.4,1.8,0.4,2.9c0,1.3-0.3,2.5-0.8,3.6c-0.5,1.1-1.2,2-2.1,2.6s-2,1.3-3.3,1.6
			c-1.3,0.4-2.6,0.5-4.2,0.5h-2.8c-1.2,0-2.2,0.1-2.9,0.4c-0.7,0.3-1.1,0.8-1.1,1.6c0,0.5,0.3,0.9,0.7,1.3c0.5,0.3,1.1,0.4,1.8,0.4
			h6.4c3,0,5.3,0.7,7,1.8c1.6,1.3,2.4,3.2,2.4,5.5c0,1.2-0.3,2.2-0.8,3.3c-0.5,1.1-1.3,1.8-2.4,2.5s-2.4,1.2-3.8,1.6
			c-1.4,0.4-3.2,0.5-5,0.5c-2.1,0-3.8-0.3-5.3-0.7c-1.3-0.4-2.4-0.9-3.2-1.6c-0.8-0.7-1.3-1.4-1.6-2.2c-0.3-0.9-0.4-1.7-0.4-2.6
			c0-1.4,0.4-2.6,1.1-3.7c0.7-1.1,1.4-1.7,2.2-2.1c-0.9-0.3-1.7-0.7-2.2-1.2c-0.5-0.7-0.8-1.4-0.8-2.4c0-0.8,0.1-1.3,0.3-1.8
			c0.3-0.5,0.5-0.9,0.9-1.2c0.4-0.4,0.8-0.5,1.3-0.8C534.3,130.6,534.8,130.5,535.1,130.4L535.1,130.4z M538,138.9
			c-0.4,0.1-0.7,0.3-1.1,0.7c-0.4,0.3-0.7,0.7-0.9,1.1c-0.3,0.4-0.5,0.9-0.7,1.3c-0.1,0.5-0.3,0.9-0.3,1.4c0,0.7,0.1,1.3,0.3,1.8
			c0.1,0.5,0.5,1.1,1.1,1.6c0.5,0.4,1.3,0.8,2.1,1.1c0.9,0.3,2.1,0.4,3.6,0.4c2.4,0,4.2-0.4,5.4-1.3c1.3-0.9,1.8-2.1,1.8-3.6
			c0-0.5-0.1-1.1-0.3-1.6c-0.1-0.5-0.4-1.1-0.8-1.4c-0.4-0.4-1.1-0.8-1.8-1.1c-0.8-0.3-1.8-0.4-3-0.4L538,138.9L538,138.9z
			 M547.9,123.9c0-0.7-0.1-1.3-0.3-2c-0.1-0.7-0.5-1.3-0.9-1.8c-0.5-0.5-1.1-0.9-1.8-1.3c-0.8-0.4-1.7-0.5-2.9-0.5
			c-2,0-3.4,0.5-4.5,1.4s-1.4,2.4-1.4,4.1c0,1.7,0.5,3,1.4,3.9c0.9,1.1,2.2,1.4,3.9,1.4c0.9,0,1.8-0.1,2.6-0.3
			c0.8-0.3,1.4-0.5,2.1-1.1c0.5-0.4,1.1-1.1,1.3-1.7C547.8,125.6,547.9,124.8,547.9,123.9z"/>
		<path id="XMLID_170_" class="st0" d="M571.4,115.4c1.6,0,3,0.3,4.2,0.7c1.2,0.4,2.1,1.1,2.8,1.7c0.8,0.7,1.3,1.4,1.7,2.4
			c0.4,0.9,0.7,1.7,0.9,2.6c0.1,0.9,0.3,1.7,0.3,2.5s0,1.4,0,2v2h-16.4c0,1.2,0.1,2.2,0.3,3.3c0.3,1.1,0.5,2,1.1,2.8
			c0.5,0.8,1.3,1.4,2.1,1.8c0.9,0.5,2.1,0.7,3.4,0.7c1.4,0,2.8-0.1,3.9-0.4c1.2-0.3,2.5-0.8,3.9-1.3l1.1,2.6c-1.4,0.8-3,1.3-4.5,1.7
			c-1.4,0.4-3,0.5-4.7,0.5c-2.2,0-3.9-0.4-5.4-1.1c-1.4-0.7-2.5-1.6-3.3-2.6c-0.8-1.2-1.4-2.5-1.7-3.9c-0.3-1.6-0.5-3.2-0.5-4.9
			c0-0.8,0-1.6,0.1-2.5c0.1-0.9,0.3-1.8,0.5-2.8c0.3-0.9,0.7-1.8,1.2-2.8c0.5-0.9,1.2-1.7,2-2.5c0.8-0.7,1.7-1.3,2.9-1.7
			C568.5,115.5,569.8,115.4,571.4,115.4z M571.5,118.3c-1.2,0-2.1,0.3-3,0.7c-0.8,0.4-1.4,1.1-2,1.7c-0.5,0.8-0.9,1.6-1.2,2.6
			c-0.3,0.9-0.4,2-0.5,3h12.5c0-1.2-0.1-2.2-0.3-3.3c-0.3-1.1-0.5-1.8-0.9-2.5c-0.4-0.7-1.1-1.3-1.8-1.6
			C573.5,118.7,572.5,118.3,571.5,118.3z"/>
		<path id="XMLID_169_" class="st0" d="M604.1,140.5v-16.2c0-0.8,0-1.6-0.1-2.2c-0.1-0.7-0.3-1.3-0.5-1.7c-0.3-0.5-0.7-0.9-1.3-1.1
			c-0.5-0.3-1.3-0.4-2.4-0.4c-1.2,0-2.5,0.3-3.8,0.8c-1.4,0.5-2.6,1.1-3.7,1.7v19.3h-4.1v-24.6h3.9v2.1l0.1,0.1
			c1.3-0.9,2.9-1.6,4.5-2.1c1.6-0.5,3-0.8,4.1-0.8c1.7,0,3,0.3,3.9,0.8c0.9,0.5,1.7,1.1,2.2,1.8c0.5,0.8,0.8,1.6,0.9,2.5
			c0.1,0.9,0.1,1.8,0.1,2.8v17.2h-3.9L604.1,140.5L604.1,140.5z"/>
		<path id="XMLID_168_" class="st0" d="M619.6,128c0,1.3,0.1,2.6,0.4,3.8c0.3,1.2,0.7,2.1,1.2,3c0.5,0.9,1.3,1.6,2.1,2
			c0.9,0.5,2.1,0.7,3.4,0.7s2.5-0.1,3.6-0.4c1.1-0.3,2.2-0.7,3.6-1.2l1.1,2.8c-1.1,0.5-2.4,1.1-3.8,1.4c-1.4,0.4-3,0.7-4.7,0.7
			c-2.1,0-3.8-0.3-5.1-0.9c-1.3-0.7-2.5-1.4-3.4-2.6c-0.9-1.1-1.4-2.4-1.8-3.9c-0.4-1.4-0.5-3.2-0.5-4.9c0-1.3,0.1-2.8,0.4-4.2
			c0.3-1.6,0.9-2.9,1.7-4.3c0.8-1.3,2-2.4,3.4-3.3c1.4-0.9,3.3-1.3,5.7-1.3c1.1,0,2.2,0.1,3.4,0.3c1.2,0.1,2.4,0.5,3.7,1.1l-0.9,2.9
			c-1.2-0.4-2.2-0.7-3.2-0.8c-0.9-0.1-1.8-0.1-2.6-0.1c-2.4,0-4.2,0.9-5.5,2.6C620.3,122.9,619.6,125.1,619.6,128z"/>
		<path id="XMLID_167_" class="st0" d="M650.8,132.6c0.4-1.1,0.7-2.4,1.2-3.7c0.4-1.3,0.9-2.8,1.3-4.2c0.4-1.4,0.9-2.9,1.4-4.5
			c0.5-1.4,0.9-2.9,1.4-4.3h4.2c-0.8,2.4-1.6,4.7-2.4,7.2s-1.6,4.9-2.5,7.4c-0.8,2.5-1.7,4.9-2.5,7.4c-0.8,2.5-1.6,4.9-2.4,7.1
			c-0.7,2-1.4,3.6-2.6,4.6c-1.1,1.2-2.6,1.7-4.5,1.7c-0.4,0-0.9-0.1-1.8-0.1c-0.8,0-2-0.3-3.6-0.8l0.7-2.9c0.9,0.3,1.7,0.4,2.2,0.4
			c0.5,0.1,1.2,0.1,1.7,0.1c0.9,0,1.8-0.3,2.4-0.7c0.7-0.5,1.2-1.3,1.6-2.8l1.4-4.3h-2l-7.8-24.5h3.9l5,16.8c0.4,1.1,0.7,2.1,0.8,3
			c0.3,0.9,0.4,1.7,0.5,2.1h0.3L650.8,132.6z"/>
	</g>
	<g id="XMLID_150_">
		<path id="XMLID_165_" class="st0" d="M194.8,51.1h-8V34.6h8.7v-18h20.5v18h13.1v16.4h-13.1v19.2c0,7.1,7.2,8,11.2,8
			c0.8,0,1.4,0,2.8-0.1v18.3c-1.6,0.1-3.3,0.4-5.8,0.4c-10,0-29.3-2.6-29.3-23.8V51.1z"/>
		<path id="XMLID_164_" class="st0" d="M239.3,33.6h20.3v10.7c0,2.1-0.3,3.9-0.3,3.9h0.3c2.6-8.5,10.7-15.6,20-15.6
			c0.8,0,1.7,0.1,2.5,0.3v20.6c-0.8-0.3-2.8-0.4-4.2-0.4c-11.7,0-17.2,7.4-17.2,18.9v24.3h-21V33.6L239.3,33.6L239.3,33.6z"/>
		<path id="XMLID_161_" class="st0" d="M316.8,57.1h1.8v-1.1c0-5.3-4.2-7-8.9-7c-6,0-12.4,2.6-17.2,5.9l-7.4-14.9
			c5.4-4.1,16.3-8.2,26.6-8.2c17.2,0,28,9.6,28,25.5V96h-19.2v-3.8c0-2.1,0.3-3.9,0.3-3.9h-0.3c-4.1,5.8-11.4,9.1-18.7,9.1
			c-12.1,0-20.5-8.3-20.5-19.1C281.4,61.7,301.4,57.1,316.8,57.1z M308.2,82c6,0,10.7-5.9,10.7-11v-1.7h-2c-6.4,0-14.7,1.7-14.7,7.4
			C302.2,79.6,304.3,82,308.2,82z"/>
		<path id="XMLID_160_" class="st0" d="M427.2,33.6h21v62.7h-21V33.6z"/>
		<path id="XMLID_159_" class="st0" d="M457.1,33.6h20.3v5.5c0,2.1-0.3,3.9-0.3,3.9h0.3c2.9-4.9,8.9-10.8,20-10.8
			c12.6,0,22.5,5.8,22.5,23.5v40.6h-21V59.6c0-5.8-2.4-8.3-7-8.3c-9.3,0-13.7,7.8-13.7,16.7v28.4h-21L457.1,33.6L457.1,33.6z"/>
		<path id="XMLID_158_" class="st0" d="M351.2,51.1h-7.6V34.6h7.6v-2.5c0-20.5,18.7-23.4,28.7-23.4c2.2,0,4.1,0,6.3,0.4v17.8
			c-0.5-0.1-1.8-0.3-3.4-0.3c-4.1,0-10.7,0.8-10.7,6v2h11.6v16.4h-11.6v45.1h-21V51.1L351.2,51.1L351.2,51.1z"/>
		<path id="XMLID_157_" class="st0" d="M387.4,51.1h-7.6V34.6h7.6v-2.5c0-20.5,18.7-23.4,28.7-23.4c2.2,0,4.1,0,6.3,0.4v17.8
			c-0.5-0.1-1.8-0.3-3.4-0.3c-4.1,0-10.7,0.8-10.7,6v2h11.6v16.4h-11.6v45.1h-21V51.1L387.4,51.1L387.4,51.1z"/>
		<path id="XMLID_154_" class="st0" d="M562.4,57.1h1.8v-1.1c0-5.3-4.2-7-8.9-7c-6,0-12.4,2.6-17.2,5.9l-7.4-14.9
			c5.4-4.1,16.3-8.2,26.6-8.2c17.2,0,28,9.6,28,25.5V96h-19.2v-3.8c0-2.1,0.3-3.9,0.3-3.9h-0.3c-4.1,5.8-11.4,9.1-18.7,9.1
			c-12.1,0-20.5-8.3-20.5-19.1C527,61.7,547,57.1,562.4,57.1z M553.9,82c6,0,10.7-5.9,10.7-11v-1.7h-2c-6.4,0-14.7,1.7-14.7,7.4
			C547.8,79.6,549.9,82,553.9,82z"/>
		<path id="XMLID_151_" class="st0" d="M621.1,32.1c5.7,0,12.4,0.8,16.4,5h0.3c0,0-0.1-1.2-0.1-2.8V9.3h21v87h-19.7v-4.1
			c0-2,0.1-3.6,0.1-3.6h-0.3c-3.9,5.9-10.7,9.1-18.1,9.1c-17.1,0-28.3-13.4-28.3-32.9C592.4,45,604.4,32.1,621.1,32.1z M625.9,80.3
			c6.3,0,12.4-4.6,12.4-15.5c0-7.5-4.1-15-12.4-15c-6.6,0-12.4,5.4-12.4,15C613.6,74.2,618.6,80.3,625.9,80.3z"/>
	</g>
	<circle id="XMLID_149_" class="st0" cx="437.8" cy="18.7" r="10"/>
</g>
<circle id="XMLID_148_" class="st1" cx="77.7" cy="78.5" r="69.8"/>
</svg>
